<svg id="Layer_35" enable-background="new 0 0 64 64" height="512" viewBox="0 0 64 64" width="512" xmlns="http://www.w3.org/2000/svg"><path d="m9 20.95c0 1.055.411 2.047 1.157 2.793l3.313 3.313 20.409 20.409 7.415 7.415c1.233 1.233 3.243 1.405 4.707.535l-36.448-36.447c-.342.584-.553 1.256-.553 1.982z"/><path d="m12.056 28.47c-.342-.342-.811-.536-1.292-.536-.015 0-.029 0-.044 0-.977.023-1.76.807-1.784 1.784-.012.498.183.985.535 1.337l20.409 20.409c.344.346.803.536 1.291.536 1.009 0 1.829-.82 1.829-1.829 0-.488-.19-.947-.536-1.293z"/><path d="m35 25h9.604l-1.604-2.728v-4.272h-1.223c-1.501 0-2.972.609-4.033 1.67l-1.073 1.073c-1.23 1.23-2.805 1.987-4.506 2.193.396 1.195 1.51 2.064 2.835 2.064z"/><path d="m16.995 49.409-10.873-10.873c-.346-.346-.805-.536-1.293-.536-1.009 0-1.829.82-1.829 1.829 0 .488.19.947.536 1.293l11.757 11.757c1.446 1.446 3.968 1.446 5.414 0l3.879-3.879-3.591-3.591z"/><path d="m48.283 40.685-12.286-6.553c-.162-.086-.344-.132-.527-.132h-.349c-.618 0-1.121.503-1.121 1.121 0 .3.117.581.328.793l10.136 10.136c.613.612 1.427.95 2.293.95 1.788 0 3.243-1.455 3.243-3.243v-.212c0-1.199-.658-2.295-1.717-2.86z"/><path d="m59.414 8-14.16 14.16 8.953 15.219 6.793-6.793v-22.586z"/><path d="m45.781 27h-10.781c-2.445 0-4.478-1.768-4.908-4.09-.541-.08-1.073-.211-1.59-.406l-13.907-5.249c-.447-.17-.916-.255-1.394-.255h-.251c-.726 0-1.397.211-1.982.553l36.532 36.533 8.379-8.379c.723-.723 1.121-1.685 1.121-2.707v-3h-3.572zm6.219 16.757c0 2.891-2.352 5.243-5.243 5.243-1.4 0-2.717-.545-3.707-1.536l-10.136-10.136c-.589-.589-.914-1.373-.914-2.207 0-1.721 1.4-3.121 3.121-3.121h.349c.51 0 1.018.127 1.468.367l12.287 6.553c1.712.913 2.775 2.685 2.775 4.625z"/></svg>